<svg class="svg_desktop" fill="none" xmlns="http://www.w3.org/2000/svg" viewBox="0 0 393 83"><path d="M0 52.165c0-18.548 12.7-30.72 30.365-30.72 17.664 0 30.365 12.172 30.365 30.72C60.73 71.06 48.03 83 30.365 83S0 70.017 0 52.165zm43.642.232c0-11.94-5.426-17.968-13.277-17.968-7.851 0-13.278 6.028-13.278 17.968 0 11.94 5.427 17.504 13.278 17.504 7.85 0 13.277-5.564 13.277-17.504zM72.737 23.184h14.778c-.115 3.826-2.54 8.81-5.657 13.331h7.158c2.655-8.23 8.428-15.07 17.665-15.07 12.7 0 19.627 8.463 19.627 21.33v38.37h-16.395v-35.24c0-7.65-3.579-10.897-9.236-10.897-11.43 0-11.546 12.52-11.546 18.664v27.473H72.738v-57.96zM147.552 65.96V35.704h-12.123v-12.52h12.123v-18.2h16.394v18.2h15.01v12.52h-15.01v27.242c0 3.477 1.501 5.1 5.08 5.1h12.47v13.1h-19.281c-9.352 0-14.663-6.145-14.663-15.186zM187.615 52.165c0-18.316 9.698-30.72 23.784-30.72 11.891 0 16.625 7.767 19.165 13.68h6.927c-2.886-4.522-6.119-9.97-6.119-23.765V0h16.395v81.145h-14.894c0-4.057 2.656-8.462 4.965-11.824h-6.928C228.024 75.117 223.637 83 211.399 83c-14.086 0-23.784-12.52-23.784-30.835zm44.44 0c0-12.288-5.541-18.316-13.739-18.316-7.62 0-13.508 4.753-13.508 18.316 0 13.563 5.888 18.315 13.508 18.315 8.082 0 13.739-6.028 13.739-18.315zM259.89 52.049c0-18.2 12.469-30.603 29.21-30.603 19.396 0 29.556 15.301 27.94 34.66h-40.756c.462 10.201 5.889 14.375 12.931 14.375 7.39 0 10.969-4.637 13.393-10.086l14.663 5.68C314.038 73.496 306.765 83 289.215 83c-17.78 0-29.325-11.94-29.325-30.951zm40.977-7.535c-.693-7.187-4.849-11.244-11.777-11.244-6.581 0-11.083 3.94-12.238 11.244h24.015zM354.322 57.15l-8.428 8.114v15.881H329.5V0h16.394v25.619c0 11.592-3.117 15.881-8.313 20.17l4.388 4.753 27.132-27.358h20.089l-23.553 22.953L393 81.145h-20.666L354.322 57.15z" fill="#fff"/></svg>