<svg width="19" height="82" viewBox="0 0 19 82" fill="none" xmlns="http://www.w3.org/2000/svg">
<g clip-path="url(#clip0)">
<path d="M18.9528 80.9606L13.6271 79.8584V82H11.7647V79.4787L7.2259 78.5404V82H5.3635V78.1607L0 77.0585L0 75.1573L5.3635 76.2595L5.3635 72.2687L0 71.1665L0 69.253L5.3635 70.3552V68.1631H7.2259V70.7349L11.7647 71.6855V68.1631H13.6271V72.0665L18.9528 73.1687V75.0686L13.6271 73.9786V77.9586L18.9528 79.0608V80.9606ZM11.7647 77.5775V73.599L7.2259 72.6484L7.2259 76.6406L11.7647 77.5775Z" fill="white"/>
<path d="M9.67854 66.5103C4.17354 66.5103 0.358444 62.3842 0.358444 57.4017C0.358444 52.7826 3.02133 50.1616 5.73542 49.2274L6.78521 51.8743C4.42958 52.7566 2.73968 54.3915 2.73968 57.4536C2.73968 60.6455 5.0953 63.7336 9.65293 63.7336C14.1081 63.7336 16.6686 61.1905 16.6686 57.5574C16.6686 54.0541 14.313 52.1079 12.1622 51.9522L12.1622 58.2321H9.80656L9.80656 49.2793H18.6402V51.7965C17.2575 51.7965 15.8237 51.2775 14.8251 50.7844V52.0041C16.1565 52.4971 18.9986 54.0541 18.9986 58.31C19 63.1108 15.414 66.5103 9.67854 66.5103Z" fill="white"/>
<path d="M0.716934 44.9976L0.716934 31.7889H3.07256L3.07256 42.4025H8.75679V34.0466H11.0868V42.4025H18.6402V44.9976H0.716934Z" fill="white"/>
<path d="M15.8237 29.6092C12.7511 24.5489 9.78096 20.3709 6.1963 20.3709C3.86628 20.3709 2.66286 21.8501 2.66286 23.6666C2.66286 25.6388 4.07112 27.1439 6.60598 27.1439L6.24751 29.7649C2.8421 29.7389 0.358444 27.4294 0.358444 23.6406C0.358444 19.8778 2.71407 17.6461 5.91465 17.6461C7.835 17.6461 9.4737 18.3208 10.9076 19.5405C12.6743 21.0975 14.4666 23.8742 16.4638 27.4813L17.4367 26.8325C16.7966 25.8983 16.2845 24.8862 16.2845 22.9659V17.4385H18.6402V29.6092H15.8237Z" fill="white"/>
<path d="M9.62733 14.5322C3.48221 14.5322 0.358444 11.2365 0.358444 7.24021C0.358444 3.26982 3.48221 8.4877e-05 9.62733 8.4877e-05C15.7468 8.4877e-05 18.9986 2.93246 18.9986 7.24021C19 11.5739 15.7468 14.5322 9.62733 14.5322ZM9.62733 2.72486C5.32575 2.72486 2.63726 4.51543 2.63726 7.24021C2.63726 10.0169 5.32575 11.8075 9.62733 11.8075C14.2362 11.8075 16.7198 10.0688 16.7198 7.24021C16.7212 4.46353 14.2618 2.72486 9.62733 2.72486Z" fill="white"/>
</g>
<defs>
<clipPath id="clip0">
<rect width="82" height="19" fill="white" transform="translate(0 82) rotate(-90)"/>
</clipPath>
</defs>
</svg>
