<svg width="412" height="151" viewBox="0 0 412 151" fill="none" xmlns="http://www.w3.org/2000/svg">
<g clip-path="url(#clip0)">
<path d="M0 54C0 34.7999 13.2 22.2 31.56 22.2C49.92 22.2 63.12 34.7999 63.12 54C63.12 73.56 49.92 85.9199 31.56 85.9199C13.2 85.9199 0 72.4799 0 54ZM45.36 54.24C45.36 41.88 39.72 35.6399 31.56 35.6399C23.4 35.6399 17.76 41.88 17.76 54.24C17.76 66.6 23.4 72.36 31.56 72.36C39.72 72.36 45.36 66.6 45.36 54.24Z" fill="white"/>
<path d="M75.5996 24H90.9596C90.8396 27.96 88.3196 33.1199 85.0796 37.7999H92.5196C95.2796 29.2799 101.28 22.2 110.88 22.2C124.08 22.2 131.28 30.9599 131.28 44.2799V84H114.24V47.52C114.24 39.6 110.52 36.24 104.64 36.24C92.7596 36.24 92.6396 49.2 92.6396 55.56V84H75.5996V24Z" fill="white"/>
<path d="M153.36 68.2799V36.9599H140.76V23.9999H153.36V5.15991H170.4V23.9999H186V36.9599H170.4V65.1599C170.4 68.7599 171.96 70.4399 175.68 70.4399H188.64V83.9999H168.6C158.88 83.9999 153.36 77.6399 153.36 68.2799Z" fill="white"/>
<path d="M195 54C195 35.04 205.08 22.2 219.72 22.2C232.08 22.2 237 30.24 239.64 36.36H246.84C243.84 31.68 240.48 26.04 240.48 11.76V0H257.52V84H242.04C242.04 79.8 244.8 75.24 247.2 71.76H240C237 77.76 232.44 85.92 219.72 85.92C205.08 85.92 195 72.96 195 54ZM241.19 54C241.19 41.28 235.43 35.04 226.91 35.04C218.99 35.04 212.87 39.96 212.87 54C212.87 68.04 218.99 72.96 226.91 72.96C235.31 72.96 241.19 66.72 241.19 54Z" fill="white"/>
<path d="M270.119 53.88C270.119 35.04 283.079 22.2 300.479 22.2C320.639 22.2 331.199 38.04 329.519 58.08H287.159C287.639 68.64 293.279 72.9599 300.599 72.9599C308.279 72.9599 311.999 68.16 314.519 62.52L329.759 68.4C326.399 76.08 318.839 85.9199 300.599 85.9199C282.119 85.9199 270.119 73.56 270.119 53.88ZM312.709 46.08C311.989 38.64 307.669 34.4399 300.469 34.4399C293.629 34.4399 288.949 38.52 287.749 46.08H312.709Z" fill="white"/>
<path d="M368.271 59.16L359.511 67.56V84H342.471V0H359.511V26.52C359.511 38.52 356.271 42.96 350.871 47.4L355.431 52.32L383.631 24H404.511L380.031 47.76L408.471 84H386.991L368.271 59.16Z" fill="white"/>
</g>
<path d="M268.838 150.916L270.787 141.385H267V138.053H271.458L273.118 129.931H267V126.598H273.789L275.738 117H279.1L277.151 126.598H284.208L286.157 117H289.54L287.591 126.598H291.468V129.931H286.92L285.239 138.053H291.468V141.385H284.565L282.616 150.916H279.257L281.184 141.385H274.146L272.197 150.916H268.838ZM274.82 138.053H281.856L283.536 129.931H276.477L274.82 138.053Z" fill="white"/>
<path d="M294.391 134.319C294.391 124.468 301.687 117.641 310.497 117.641C318.665 117.641 323.3 122.407 324.952 127.263L320.271 129.142C318.711 124.927 315.82 121.903 310.405 121.903C304.761 121.903 299.301 126.118 299.301 134.274C299.301 142.246 303.798 146.828 310.222 146.828C316.417 146.828 319.858 142.613 320.134 138.764H309.029V134.549H324.86V150.356H320.409C320.409 147.882 321.327 145.316 322.199 143.529H320.042C319.17 145.912 316.417 150.997 308.891 150.997C300.402 151 294.391 144.583 294.391 134.319Z" fill="white"/>
<path d="M332.432 118.283H355.788V122.498H337.02V132.67H351.796V136.84H337.02V150.356H332.432V118.283Z" fill="white"/>
<path d="M359.643 145.316C368.591 139.818 375.979 134.503 375.979 128.088C375.979 123.919 373.363 121.765 370.151 121.765C366.663 121.765 364.002 124.285 364.002 128.821L359.367 128.18C359.413 122.086 363.497 117.641 370.197 117.641C376.85 117.641 380.797 121.857 380.797 127.584C380.797 131.02 379.604 133.953 377.447 136.519C374.694 139.68 369.784 142.888 363.405 146.461L364.552 148.203C366.204 147.057 367.994 146.141 371.39 146.141H381.164V150.356H359.643V145.316Z" fill="white"/>
<path d="M386.303 134.228C386.303 123.231 392.13 117.641 399.197 117.641C406.218 117.641 412 123.231 412 134.228C412 145.178 406.815 150.997 399.197 150.997C391.534 151 386.303 145.178 386.303 134.228ZM407.182 134.228C407.182 126.53 404.015 121.719 399.197 121.719C394.287 121.719 391.121 126.53 391.121 134.228C391.121 142.475 394.195 146.92 399.197 146.92C404.107 146.922 407.182 142.521 407.182 134.228Z" fill="white"/>
<defs>
<clipPath id="clip0">
<rect width="408.47" height="85.92" fill="white"/>
</clipPath>
</defs>
</svg>
