<svg width="18" height="18" viewBox="0 0 18 18" fill="none" xmlns="http://www.w3.org/2000/svg">
<path d="M6.85875 13.7175C3.07725 13.7175 0 10.641 0 6.85875C0 3.0765 3.07725 0 6.85875 0C10.6403 0 13.7175 3.07725 13.7175 6.85875C13.7175 10.6403 10.641 13.7175 6.85875 13.7175ZM6.85875 2.34225C4.368 2.34225 2.34225 4.36875 2.34225 6.85875C2.34225 9.34875 4.36875 11.3752 6.85875 11.3752C9.34875 11.3752 11.376 9.34875 11.376 6.85875C11.376 4.36875 9.3495 2.34225 6.85875 2.34225ZM13.806 11.6745C13.1933 12.5565 12.417 13.3155 11.5215 13.9103L15.6105 18L17.871 15.7402L13.806 11.6745Z" fill="white"/>
</svg>
